PathFileType	4	(X/Y/Z)	C:\Git\powerlifing_model_clean\simulations\Test1\Session1\HC835B_STD_0001\marker_experimental.trc
DataRate	CameraRate	NumFrames	NumMarkers	Units	OrigDataRate	OrigDataStartFrame	OrigNumFrames
240.000000	240.000000	4	54	mm	240.000000	42	337
Frame#	Time	RPSI			LPSI			RASI			LASI			RGT			RTH1			RTH2			RTH3			RTH4			RLK			RMK			RSK1			RSK2			RSK3			RSK4			RLA			RMA			RCAL1			RCAL2			RCAL3			RST			RPT			RTN			RFMB			RSMB			RVMB			RFMH			RSMH			RVMH			RPM			LGT			LTH1			LTH2			LTH3			LTH4			LLK			LMK			LSK1			LSK2			LSK3			LSK4			LLA			LMA			LCAL1			LCAL2			LCAL3			LFMH			LVMH			RHJC			LHJC			RKJC			LKJC			RAJC			LAJC
		X1	Y1	Z1	X2	Y2	Z2	X3	Y3	Z3	X4	Y4	Z4	X5	Y5	Z5	X6	Y6	Z6	X7	Y7	Z7	X8	Y8	Z8	X9	Y9	Z9	X10	Y10	Z10	X11	Y11	Z11	X12	Y12	Z12	X13	Y13	Z13	X14	Y14	Z14	X15	Y15	Z15	X16	Y16	Z16	X17	Y17	Z17	X18	Y18	Z18	X19	Y19	Z19	X20	Y20	Z20	X21	Y21	Z21	X22	Y22	Z22	X23	Y23	Z23	X24	Y24	Z24	X25	Y25	Z25	X26	Y26	Z26	X27	Y27	Z27	X28	Y28	Z28	X29	Y29	Z29	X30	Y30	Z30	X31	Y31	Z31	X32	Y32	Z32	X33	Y33	Z33	X34	Y34	Z34	X35	Y35	Z35	X36	Y36	Z36	X37	Y37	Z37	X38	Y38	Z38	X39	Y39	Z39	X40	Y40	Z40	X41	Y41	Z41	X42	Y42	Z42	X43	Y43	Z43	X44	Y44	Z44	X45	Y45	Z45	X46	Y46	Z46	X47	Y47	Z47	X48	Y48	Z48	X49	Y49	Z49	X50	Y50	Z50	X51	Y51	Z51	X52	Y52	Z52	X53	Y53	Z53	X54	Y54	Z54
43	0.175000	495.879974	1162.096436	-352.562714	387.471527	1159.505005	-348.761505	555.185913	1105.688110	-556.887634	316.117432	1101.366211	-554.123474	637.744019	1023.961365	-448.675446	639.965149	836.449097	-460.102692	627.786194	819.671021	-517.299377	630.157104	753.732910	-475.252930	606.723694	737.784607	-526.530884	609.414734	552.796631	-457.262451	483.767365	538.747559	-446.737549	613.192383	307.203613	-360.646118	615.122925	287.921051	-419.059113	611.538269	249.467392	-371.922028	600.463867	231.809906	-427.946564	605.424622	114.607307	-359.329437	522.121948	124.321686	-404.192902	560.391846	95.519234	-304.751556	528.783447	58.162830	-314.370636	592.839417	58.755787	-308.767029	517.422302	76.218727	-380.605896	618.427795	72.242073	-367.018005	530.471008	94.497589	-438.265259	537.030884	78.127159	-469.380005	586.296692	101.840576	-477.441467	632.279785	47.644943	-410.211334	537.242310	50.776691	-527.283264	592.007629	65.845757	-537.515808	648.228943	42.280655	-490.583618	582.578613	53.336128	-596.830627	245.219543	1013.214417	-442.593384	239.388214	830.914612	-442.813293	242.549026	813.867493	-501.145538	243.578445	746.335754	-456.450317	263.544708	731.341431	-512.277405	266.040894	564.212463	-441.695496	397.008057	553.621643	-442.734772	257.477844	300.271240	-354.034454	251.467239	279.202301	-403.020081	257.313019	244.901749	-367.788513	267.646271	225.700317	-419.910126	259.374451	115.417831	-363.181091	349.444824	123.708405	-400.660828	306.633606	94.799164	-303.225311	275.817383	58.183495	-303.485291	334.131348	56.405167	-307.922913	344.701385	55.297157	-530.683777	229.746170	41.538723	-492.983276	523.920616	1041.894373	-475.578634	351.538779	1038.778040	-473.585519	546.591049	545.772095	-452.000000	331.524475	558.917053	-442.215134	563.773285	119.464497	-381.761169	304.409637	119.563118	-381.920959
44	0.179167	495.883972	1162.083618	-352.593750	387.464111	1159.509521	-348.756989	555.176819	1105.684082	-556.907349	316.097229	1101.372314	-554.145386	637.741028	1023.970886	-448.694031	639.975037	836.459839	-460.133698	627.765625	819.651062	-517.301758	630.144775	753.704712	-475.260437	606.718994	737.769836	-526.550781	609.424316	552.812439	-457.286926	483.743988	538.747681	-446.736328	613.183472	307.216919	-360.643921	615.120667	287.938843	-419.064178	611.521301	249.474197	-371.931427	600.459473	231.807816	-427.974579	605.465210	114.652046	-359.282166	522.102905	124.286133	-404.205444	560.388916	95.500679	-304.743652	528.767639	58.143906	-314.372650	592.846252	58.763058	-308.782593	517.392700	76.225212	-380.609161	618.476746	72.277908	-367.011566	530.498047	94.500412	-438.244293	537.039124	78.116806	-469.383850	586.309631	101.815117	-477.428619	632.301697	47.687035	-410.197083	537.359192	50.710625	-527.315979	591.987244	65.818275	-537.482544	648.240906	42.290131	-490.568359	582.587830	53.325977	-596.824219	245.222504	1013.208862	-442.625763	239.411209	830.922485	-442.827087	242.570786	813.848389	-501.169891	243.577927	746.359131	-456.477722	263.573395	731.343018	-512.293640	266.027802	564.216248	-441.692047	396.982849	553.627625	-442.750580	257.481293	300.286194	-354.020691	251.452042	279.225037	-403.005798	257.299835	244.900909	-367.781494	267.667267	225.729218	-419.903107	259.387329	115.426704	-363.172607	349.450745	123.722137	-400.668579	306.628967	94.797844	-303.222534	275.798096	58.198666	-303.471161	334.143311	56.402454	-307.951050	344.701508	55.272701	-530.680298	229.738037	41.521152	-492.978088	523.906224	1041.886248	-475.598394	351.517043	1038.777233	-473.606871	546.584152	545.780060	-452.011627	331.505325	558.921936	-442.221313	563.784058	119.469090	-381.743805	304.419037	119.574421	-381.920593
45	0.183333	495.884613	1162.113525	-352.631561	387.478729	1159.503540	-348.793549	555.144165	1105.670044	-556.952454	316.087585	1101.375000	-554.179199	637.739197	1023.979187	-448.726349	639.924072	836.433838	-460.131165	627.766479	819.662537	-517.334290	630.194092	753.726074	-475.267242	606.726685	737.784790	-526.547607	609.438416	552.816895	-457.289764	483.758942	538.741211	-446.736053	613.198242	307.223480	-360.657715	615.130493	287.928589	-419.062958	611.515991	249.477844	-371.925232	600.453247	231.785889	-427.951477	605.431824	114.662971	-359.281189	522.105286	124.326805	-404.206635	560.384277	95.503242	-304.742035	528.773010	58.171917	-314.359039	592.849182	58.795860	-308.781769	517.415466	76.233902	-380.645355	618.399048	72.248726	-367.030090	530.501709	94.500275	-438.257996	537.055359	78.123161	-469.397614	586.311768	101.825752	-477.400848	632.246643	47.681019	-410.196350	537.352417	50.700291	-527.297241	591.992371	65.851616	-537.478394	648.231934	42.265896	-490.589325	582.561340	53.365894	-596.835938	245.228409	1013.204407	-442.635651	239.431870	830.933289	-442.850067	242.558548	813.856689	-501.156342	243.564224	746.332947	-456.464844	263.555725	731.339722	-512.269348	266.037018	564.220459	-441.672241	396.975830	553.609375	-442.739716	257.463226	300.274323	-354.033508	251.459641	279.195313	-403.035309	257.305664	244.894516	-367.783508	267.616089	225.713486	-419.901642	259.407471	115.370583	-363.181824	349.455872	123.705391	-400.650574	306.613953	94.807755	-303.207764	275.814880	58.217991	-303.480743	334.126892	56.418617	-307.949127	344.708496	55.264668	-530.632385	229.748611	41.516449	-492.995880	523.876904	1041.887844	-475.637238	351.502899	1038.790862	-473.637557	546.598679	545.779053	-452.012909	331.506424	558.914917	-442.205978	563.768555	119.494888	-381.743912	304.431671	119.537987	-381.916199
46	0.187500	495.896820	1162.097046	-352.648193	387.478485	1159.535278	-348.814026	555.156799	1105.670288	-556.969849	316.103485	1101.366699	-554.201172	637.746033	1023.974426	-448.758453	639.937561	836.460205	-460.156158	627.753723	819.646057	-517.337646	630.176941	753.718079	-475.289063	606.728333	737.778137	-526.561035	609.412109	552.787720	-457.332214	483.741180	538.716003	-446.793335	613.207703	307.220947	-360.662811	615.106628	287.923798	-419.076447	611.513245	249.459549	-371.960419	600.475708	231.804199	-427.965485	605.422729	114.627281	-359.326355	522.111694	124.299568	-404.210175	560.394226	95.477333	-304.757904	528.788513	58.200016	-314.352112	592.946106	58.775948	-308.742218	517.397644	76.238258	-380.592926	618.311890	72.139679	-367.125854	530.467896	94.472412	-438.242828	537.016174	78.132187	-469.386108	586.293884	101.842422	-477.427155	632.297791	47.683788	-410.199402	537.322510	50.736458	-527.304260	592.005615	65.826981	-537.494812	648.215759	42.278999	-490.584534	582.559265	53.346046	-596.828613	245.204391	1013.189392	-442.630524	239.443115	830.923828	-442.847137	242.585419	813.855225	-501.165833	243.580688	746.331604	-456.438538	263.583740	731.324463	-512.276001	266.018585	564.216309	-441.658112	397.016235	553.642578	-442.716827	257.422546	300.291290	-353.990601	251.452789	279.225586	-403.040985	257.269257	244.895050	-367.742523	267.638184	225.712021	-419.882416	259.391479	115.381683	-363.173645	349.440491	123.715515	-400.669708	306.616516	94.831818	-303.241364	275.826050	58.171650	-303.489777	334.131073	56.419006	-307.930176	344.696014	55.255543	-530.646851	229.764740	41.539879	-493.002106	523.890776	1041.892250	-475.651360	351.518933	1038.789103	-473.654978	546.576645	545.751862	-452.062775	331.517410	558.929443	-442.187469	563.767212	119.463425	-381.768265	304.415985	119.548599	-381.921677
